<svg xmlns="http://www.w3.org/2000/svg" viewBox="0 0 512 512" width="512" height="512">
  <defs>
    <linearGradient id="bg2" x1="0" y1="0" x2="1" y2="1">
      <stop offset="0" stop-color="#1b2530"/><stop offset="1" stop-color="#0f1419"/>
    </linearGradient>
    <linearGradient id="drop2" x1="0" y1="0" x2="0" y2="1">
      <stop offset="0" stop-color="#f0b354"/><stop offset="1" stop-color="#e8a33d"/>
    </linearGradient>
    <linearGradient id="oil2" x1="0" y1="0" x2="0" y2="1">
      <stop offset="0" stop-color="#3aa76d"/><stop offset="1" stop-color="#2f9e6f"/>
    </linearGradient>
  </defs>
  <!-- full-bleed background for maskable safe-zone -->
  <rect width="512" height="512" fill="url(#bg2)"/>
  <!-- keep art within the central 80% safe zone -->
  <path d="M256 190 C293 261 326 297 326 338 a70 70 0 1 1 -140 0 C186 297 219 261 256 190 Z" fill="url(#drop2)"/>
  <path d="M192 338 a64 64 0 0 0 128 0 C320 360 292 374 256 374 C220 374 192 360 192 338 Z" fill="url(#oil2)" opacity="0.9"/>
  <circle cx="236" cy="314" r="8" fill="#fff" opacity="0.5"/>
</svg>
