<svg xmlns="http://www.w3.org/2000/svg" viewBox="0 0 512 512" width="512" height="512">
  <defs>
    <linearGradient id="bg" x1="0" y1="0" x2="1" y2="1">
      <stop offset="0" stop-color="#1b2530"/><stop offset="1" stop-color="#0f1419"/>
    </linearGradient>
    <linearGradient id="drop" x1="0" y1="0" x2="0" y2="1">
      <stop offset="0" stop-color="#f0b354"/><stop offset="1" stop-color="#e8a33d"/>
    </linearGradient>
    <linearGradient id="oil" x1="0" y1="0" x2="0" y2="1">
      <stop offset="0" stop-color="#3aa76d"/><stop offset="1" stop-color="#2f9e6f"/>
    </linearGradient>
  </defs>
  <rect width="512" height="512" rx="96" fill="url(#bg)"/>
  <!-- derrick -->
  <g stroke="#3a4756" stroke-width="10" fill="none" opacity="0.55">
    <path d="M176 372 L232 150 L280 150 L336 372"/>
    <path d="M200 300 L312 300 M212 256 L300 256 M224 212 L288 212"/>
    <path d="M200 300 L288 212 M312 300 L224 212"/>
  </g>
  <!-- mud drop -->
  <path d="M256 150 C300 236 340 280 340 330 a84 84 0 1 1 -168 0 C172 280 212 236 256 150 Z" fill="url(#drop)"/>
  <!-- fluid level -->
  <path d="M180 330 a76 76 0 0 0 152 0 C332 356 300 372 256 372 C212 372 180 356 180 330 Z" fill="url(#oil)" opacity="0.9"/>
  <circle cx="230" cy="300" r="10" fill="#fff" opacity="0.5"/>
  <circle cx="286" cy="326" r="7" fill="#fff" opacity="0.35"/>
</svg>
